<svg viewBox="0 0 64 64" xmlns="http://www.w3.org/2000/svg">
  <path
    fill="#000"
    d="M44.67 15.82c5.57 4.08 10.5 10.92 11.31 18.29.8 7.37-2.54 15.26-9.72 19.16-7.18 3.89-18.2 3.78-26.2-.18-8.01-3.96-13-11.76-12.18-19.77.81-8.01 7.43-16.23 15.53-20 8.1-3.78 15.69-1.58 21.26 2.5Z"
  />
  <path
    fill="#000"
    d="M41.96 25.03c4.23 3.2 8.28 8.98 7.02 12.92-1.26 3.95-7.84 6.07-14.18 6.46-6.34.4-12.45-.95-15.46-4.78-3.01-3.84-2.92-10.17.55-14.19 3.48-4.02 10.34-5.73 16.32-3.93 2.02.61 3.96 1.64 5.75 3.52Z"
  />
</svg>
